<svg width="24" height="16" viewBox="0 0 24 16" fill="none" xmlns="http://www.w3.org/2000/svg">
  <!-- 台灣國旗簡化版本 -->
  <rect width="24" height="16" fill="#FE0000"/>
  <rect width="12" height="8" fill="#000095"/>
  <circle cx="6" cy="4" r="2.5" fill="white"/>
  <circle cx="6" cy="4" r="1.5" fill="#000095"/>
  <!-- 十二道光芒 -->
  <g fill="white" transform="translate(6,4)">
    <polygon points="0,-2.5 0.2,-0.8 0,-0.8 -0.2,-0.8" transform="rotate(0)"/>
    <polygon points="0,-2.5 0.2,-0.8 0,-0.8 -0.2,-0.8" transform="rotate(30)"/>
    <polygon points="0,-2.5 0.2,-0.8 0,-0.8 -0.2,-0.8" transform="rotate(60)"/>
    <polygon points="0,-2.5 0.2,-0.8 0,-0.8 -0.2,-0.8" transform="rotate(90)"/>
    <polygon points="0,-2.5 0.2,-0.8 0,-0.8 -0.2,-0.8" transform="rotate(120)"/>
    <polygon points="0,-2.5 0.2,-0.8 0,-0.8 -0.2,-0.8" transform="rotate(150)"/>
    <polygon points="0,-2.5 0.2,-0.8 0,-0.8 -0.2,-0.8" transform="rotate(180)"/>
    <polygon points="0,-2.5 0.2,-0.8 0,-0.8 -0.2,-0.8" transform="rotate(210)"/>
    <polygon points="0,-2.5 0.2,-0.8 0,-0.8 -0.2,-0.8" transform="rotate(240)"/>
    <polygon points="0,-2.5 0.2,-0.8 0,-0.8 -0.2,-0.8" transform="rotate(270)"/>
    <polygon points="0,-2.5 0.2,-0.8 0,-0.8 -0.2,-0.8" transform="rotate(300)"/>
    <polygon points="0,-2.5 0.2,-0.8 0,-0.8 -0.2,-0.8" transform="rotate(330)"/>
  </g>
</svg>
